<?xml version="1.0" encoding="utf-8"?>
<svg viewBox="0.518 4.51 262.779 61.11" xmlns="http://www.w3.org/2000/svg">
  <path d="M 92.897 53.35 C 90.904 53.35 89.907 52.99 89.907 52.27 C 89.907 52.137 89.974 51.843 90.107 51.39 L 100.887 19.88 C 101.147 19.193 102.077 18.85 103.677 18.85 L 106.227 18.85 C 107.86 18.85 108.79 19.193 109.017 19.88 L 119.797 51.39 C 119.897 51.717 119.947 52.01 119.947 52.27 C 119.947 52.99 119.13 53.35 117.497 53.35 L 115.337 53.35 C 113.737 53.35 112.824 53.007 112.597 52.32 L 110.637 46.34 L 99.067 46.34 L 97.107 52.32 C 96.88 53.007 96.13 53.35 94.857 53.35 L 92.897 53.35 Z M 101.177 39.87 L 108.527 39.87 L 105.737 31.15 C 105.504 30.497 105.257 29.453 104.997 28.02 L 104.807 28.02 C 104.774 28.213 104.7 28.643 104.587 29.31 C 104.467 29.983 104.294 30.597 104.067 31.15 L 101.177 39.87 ZM 125.619 53.25 C 124.939 53.25 124.443 53.093 124.129 52.78 C 123.816 52.473 123.659 51.977 123.659 51.29 L 123.659 20.42 C 123.659 19.373 124.639 18.85 126.599 18.85 L 128.269 18.85 C 130.229 18.85 131.209 19.373 131.209 20.42 L 131.209 46.83 L 141.789 46.83 C 142.316 46.83 142.693 47.027 142.919 47.42 C 143.146 47.813 143.259 48.433 143.259 49.28 L 143.259 50.8 C 143.259 51.647 143.146 52.267 142.919 52.66 C 142.693 53.053 142.316 53.25 141.789 53.25 L 125.619 53.25 ZM 149.732 53.4 C 147.772 53.4 146.792 52.86 146.792 51.78 L 146.792 20.42 C 146.792 19.34 147.772 18.8 149.732 18.8 L 151.442 18.8 C 153.402 18.8 154.382 19.34 154.382 20.42 L 154.382 51.78 C 154.382 52.86 153.402 53.4 151.442 53.4 L 149.732 53.4 ZM 163.837 53.35 C 161.877 53.35 160.897 52.827 160.897 51.78 L 160.897 20.42 C 160.897 19.373 161.877 18.85 163.837 18.85 L 165.947 18.85 C 166.727 18.85 167.38 18.94 167.907 19.12 C 168.427 19.3 168.85 19.65 169.177 20.17 L 180.207 37.18 C 180.86 38.127 181.447 39.09 181.967 40.07 L 182.167 40.02 C 182.1 39.267 182.067 38.157 182.067 36.69 L 182.067 20.42 C 182.067 19.373 183.047 18.85 185.007 18.85 L 186.427 18.85 C 188.387 18.85 189.367 19.373 189.367 20.42 L 189.367 51.78 C 189.367 52.827 188.387 53.35 186.427 53.35 L 184.567 53.35 C 183.78 53.35 183.127 53.26 182.607 53.08 C 182.08 52.9 181.653 52.547 181.327 52.02 L 170.057 34.78 C 169.403 33.833 168.817 32.87 168.297 31.89 L 168.097 31.93 C 168.163 32.683 168.197 33.797 168.197 35.27 L 168.197 51.78 C 168.197 52.827 167.217 53.35 165.257 53.35 L 163.837 53.35 ZM 198.822 53.4 C 196.862 53.4 195.882 52.86 195.882 51.78 L 195.882 20.42 C 195.882 19.34 196.862 18.8 198.822 18.8 L 200.532 18.8 C 202.492 18.8 203.472 19.34 203.472 20.42 L 203.472 51.78 C 203.472 52.86 202.492 53.4 200.532 53.4 L 198.822 53.4 ZM 212.287 53.25 C 211.607 53.25 211.11 53.093 210.797 52.78 C 210.484 52.473 210.327 51.977 210.327 51.29 L 210.327 20.91 C 210.327 20.223 210.484 19.727 210.797 19.42 C 211.11 19.107 211.607 18.95 212.287 18.95 L 229.487 18.95 C 230.014 18.95 230.39 19.147 230.617 19.54 C 230.844 19.933 230.957 20.553 230.957 21.4 L 230.957 22.92 C 230.957 23.767 230.844 24.387 230.617 24.78 C 230.39 25.173 230.014 25.37 229.487 25.37 L 217.877 25.37 L 217.877 32.47 L 228.167 32.47 C 228.687 32.47 229.064 32.667 229.297 33.06 C 229.524 33.453 229.637 34.073 229.637 34.92 L 229.637 36.44 C 229.637 37.293 229.524 37.913 229.297 38.3 C 229.064 38.693 228.687 38.89 228.167 38.89 L 217.877 38.89 L 217.877 46.83 L 229.537 46.83 C 230.064 46.83 230.44 47.027 230.667 47.42 C 230.894 47.813 231.007 48.433 231.007 49.28 L 231.007 50.8 C 231.007 51.647 230.894 52.267 230.667 52.66 C 230.44 53.053 230.064 53.25 229.537 53.25 L 212.287 53.25 ZM 236.837 53.35 C 234.777 53.35 233.747 53.04 233.747 52.42 C 233.747 52.127 233.91 51.717 234.237 51.19 L 244.337 35.36 L 235.367 21.01 C 235.04 20.45 234.877 20.04 234.877 19.78 C 234.877 19.487 235.137 19.26 235.657 19.1 C 236.184 18.933 236.97 18.85 238.017 18.85 L 240.017 18.85 C 241.617 18.85 242.597 19.16 242.957 19.78 L 248.547 28.9 L 254.427 19.78 C 254.687 19.393 255.047 19.14 255.507 19.02 C 255.96 18.907 256.597 18.85 257.417 18.85 L 259.327 18.85 C 261.387 18.85 262.417 19.16 262.417 19.78 C 262.417 20.14 262.254 20.55 261.927 21.01 L 252.667 35.46 L 262.467 51.19 C 262.76 51.683 262.907 52.093 262.907 52.42 C 262.907 53.04 261.877 53.35 259.817 53.35 L 257.907 53.35 C 256.307 53.35 255.327 53.04 254.967 52.42 L 248.447 41.88 L 241.687 52.42 C 241.427 52.813 241.077 53.067 240.637 53.18 C 240.197 53.293 239.55 53.35 238.697 53.35 L 236.837 53.35 Z" transform="matrix(1, 0, 0, 1, 0, 0)" style="fill: rgb(7, 14, 57); text-transform: uppercase; white-space: pre;"/>
  <rect style="fill: rgb(23, 48, 172); stroke-width: 0px; stroke-miterlimit: 1;" x="21.752" y="4.998" width="40" height="40" rx="2" ry="2" transform="matrix(0.951057, 0.309017, -0.309017, 0.951057, 16.415234, -6.745251)"/>
  <rect style="fill: rgb(0, 105, 236); stroke-width: 0px; stroke-miterlimit: 1;" x="4.102" y="22.296" width="40" height="40" rx="2" ry="2" transform="matrix(0.951057, 0.309017, -0.309017, 0.951057, 16.087461, -7.475576)"/>
  <path style="stroke: rgb(64, 51, 176); fill: rgb(27, 19, 99);" d="M 50.155 45.133"/>
  <path style="stroke-width: 0px; stroke: rgb(27, 19, 99); stroke-opacity: 0; fill: rgb(27, 19, 99);" d="M 44.021 49.502 L 50.325 29.922 L 59.072 54.353 Z" transform="matrix(0.999998, 0.002144, -0.002144, 0.999998, 0.090461, -0.110419)"/>
</svg>